<?xml version="1.0" ?><!DOCTYPE svg  PUBLIC '-//W3C//DTD SVG 1.1//EN'  'http://www.w3.org/Graphics/SVG/1.1/DTD/svg11.dtd'><svg height="512px" id="icon" style="enable-background:new 0 0 512 512;" version="1.1" viewBox="0 0 512 512" width="512px" xml:space="preserve" xmlns="http://www.w3.org/2000/svg" xmlns:xlink="http://www.w3.org/1999/xlink"><style type="text/css">
<![CDATA[
	.st0{fill:#E0B792;}
	.st1{fill:#E8587E;}
	.st2{fill:#E8E8E8;}
	.st3{fill:#E9FFFF;}
	.st4{fill:#B5B5B5;}
	.st5{fill:#EFCDB7;}
	.st6{fill:#8D8D8D;}
	.st7{fill:#F3F3F3;}
	.st8{fill:#F55F6A;}
	.st9{fill:#C0C0C0;}
	.st10{fill:#FAB252;}
	.st11{fill:#C7824F;}
	.st12{fill:#C7E5BF;}
	.st13{fill:#FCB67C;}
	.st14{fill:#FCE3CF;}
	.st15{fill:#FF8D9C;}
	.st16{fill:#FF9182;}
	.st17{fill:#FF9CB2;}
	.st18{fill:#FFA991;}
	.st19{fill:#FFC5BC;}
	.st20{fill:#FFC8D5;}
	.st21{fill:#FFCAD7;}
	.st22{fill:#FFD9E5;}
	.st23{fill:#FFE3C0;}
	.st24{fill:#FFE990;}
	.st25{fill:#FFF4E4;}
	.st26{fill:#FFF8CD;}
	.st27{fill:#FFFFF6;}
	.st28{fill:#FFFFF8;}
	.st29{fill:#FFFFFF;}
	.st30{fill:#62ACCC;}
	.st31{fill:#666666;}
	.st32{fill:#688F5E;}
	.st33{fill:#333333;}
	.st34{fill:#D3A98C;}
	.st35{fill:#D9D9D9;}
	.st36{fill:#A07657;}
	.st37{fill:#A0C797;}
	.st38{fill:#737373;}
	.st39{fill:#76B9DE;}
	.st40{fill:#A6A6A6;}
	.st41{fill:#A7DBFC;}
]]>
</style><g><g><path class="st0" d="M304.6,292.3v23.5c0,12.7-6,24.6-16.1,32.2l-7.1,5.3V241.8l-60.4,7.9v180.9c0,7.9-2.5,15.9-8.2,21.3    c-8.2,7.7-23.3,9.3-23.3,9.3h92v-70.2l24.4-24.7c9.4-9.5,14.6-22.3,14.6-35.6v-38.4H304.6z"/><g><path class="st32" d="M275.8,433.2c0,0,0-23.9,31.5-34.2c11.3-3.7,23.6-3.4,34.3,1.8c8.8,4.3,17.9,12.3,21.6,27.2     c0,0,31.7-1.7,31.7,33.1H272.4L275.8,433.2z"/><path class="st37" d="M304.6,442.2c21.9,0,41.3-10.7,53.2-27.2c-4.4-7-10.3-11.4-16.2-14.3c-10.7-5.2-23-5.5-34.3-1.8     c-31.5,10.4-31.5,34.2-31.5,34.2l-0.3,2.3C284.3,439.8,294.2,442.2,304.6,442.2z"/><path class="st12" d="M284.7,413c5.7,3.9,12.5,6.3,20,6.3c14.2,0,26.3-8.4,31.9-20.5c-9.4-3.1-19.6-2.9-29.2,0.2     C296.5,402.5,289.4,407.7,284.7,413z"/></g><path class="st36" d="M304.6,292.3v23.5c0,12.7-6,24.6-16.1,32.2l-7.1,5.3v0v-29.1v-82.4l-60.4,7.9v42.2c3.3,1,7.2,2,11.6,2.7    c8.4,1.3,16.1,5.5,21.7,11.9c0.1,0.1,0.1,0.2,0.2,0.2c5.4,6.2,8.3,14.1,8.3,22.3v103.8c0,5.1-4.1,9.4-9.1,9.3    c-5.2-0.1-9.5,4.1-9.5,9.3v9.6h37.2v-53.3v-16.9l24.4-24.7c9.4-9.5,14.6-22.3,14.6-35.6v-38.4H304.6z"/><g><path class="st32" d="M259.5,275.3c10.5,16.9,30.9,37.2,68.4,37.2c0,0,32.2,0,40.9-24.9c0,0,60.9,1.9,56.9-39.1     c-4.8-48.9-61-46.2-61-46.2s-67.1-12-101.1,26.3C251.6,242.1,250.2,260.4,259.5,275.3z"/><path class="st37" d="M422.9,171.7c-7.3-29.8-36.4-52.5-72-54.7c-9.8-37.7-51.8-66.1-102.1-66.1c-55.1,0-100.2,34-104,77.1     c-0.9,0-1.8-0.1-2.7-0.1c-23.8,0-43.9,16-50.1,37.9c-28.7,7.6-48.6,23.9-48.6,42.6c0,26.1,38.3,47.3,85.6,47.3     c22.9,0,43.7-5,59.1-13.1c13.2,17.6,36.8,29.3,63.7,29.3c23.7,0,44.8-9.1,58.5-23.3c10.5,4.5,22.4,7.1,34.9,7.1     c23.9,0,45.3-9.3,59.9-23.9c1.8,0.1,3.7,0.1,5.6,0.1c31.9,0,57.7-13.7,57.7-30.5C468.5,186.9,449,174.6,422.9,171.7z"/><path class="st32" d="M410.8,232c31.9,0,57.7-13.7,57.7-30.5c0-14.3-18.7-26.3-43.9-29.6c-1.6,17.2-18.8,22.6-31.4,24.2     c-7.5,1-14.3,4.7-19.3,10.4c-14.4,16.5-44.2,14.8-59.6,12.6c-6.1-0.9-12.3,0.1-17.8,2.9c-45.4,23.6-84.3,3.2-99.8-7.5     c-5.2-3.6-11.3-5.3-17.6-5.1c-67.5,2.1-85.2-22.4-88.1-43.3c-28.1,7.7-47.5,23.8-47.5,42.3c0,26.1,38.3,47.3,85.6,47.3     c22.9,0,43.7-5,59.1-13.1c13.2,17.6,36.8,29.3,63.7,29.3c23.7,0,44.8-9.1,58.5-23.3c10.5,4.5,22.4,7.1,34.9,7.1     c23.9,0,45.3-9.3,59.9-23.9C407,232,408.9,232,410.8,232z"/><path class="st12" d="M147,115.9c23.1,21.6,54.2,34.8,88.3,34.8c43.8,0,82.5-21.8,106-55.1C323.9,69,289,50.9,248.8,50.9     C199,50.9,157.4,78.7,147,115.9z"/></g><g><path class="st13" d="M130.9,420h-50c-8.6,0-15.6-7-15.6-15.6v-5.8h81.2v5.8C146.5,413,139.5,420,130.9,420z"/><path class="st11" d="M128.6,404.1c0,2.9-2.3,5.2-5.2,5.2h-15.7c-2.9,0-5.2,2.3-5.2,5.2v5.5h28.3c8.6,0,15.6-7,15.6-15.6v-5.8     h-17.9V404.1z"/></g><path class="st14" d="M221,321.7v93c12-2.9,20.9-13.7,20.9-26.6v-39.8C241.9,335.5,233,324.7,221,321.7z"/></g><g><path class="st33" d="M319.3,461.1c0,3,2.4,5.4,5.4,5.4H395h28.5c3,0,5.4-2.4,5.4-5.4c0-3-2.4-5.4-5.4-5.4h-23.4    c-0.9-9.9-4.5-17.8-10.6-23.5c-7.4-7-16.8-9-22.2-9.5c-4-12.1-12-21.3-23.4-26.8c-11.6-5.7-25.3-6.4-38.4-2.1c-1,0.3-2,0.7-2.9,1    c-2.8,1-4.2,4.1-3.2,6.9c1,2.8,4.1,4.2,6.9,3.2c0.8-0.3,1.6-0.6,2.5-0.9c10.4-3.4,21.2-2.9,30.3,1.6c9.7,4.7,16,12.7,18.8,23.7    c0.6,2.5,2.9,4.2,5.5,4.1c0.1,0,11.1-0.4,18.6,6.7c3.9,3.7,6.3,9,7.1,15.6h-64.6C321.7,455.7,319.3,458.1,319.3,461.1z"/><path class="st33" d="M426.3,251.2c-3-0.4-5.6,1.7-6,4.7c-3.5,27.5-50.9,26.4-51.3,26.4c-2.3,0-4.5,1.4-5.3,3.6    c-7.3,20.9-35.5,21.3-35.8,21.3c-19.2,0-35.5-5.6-48.5-16.7c-2.3-1.9-5.7-1.7-7.6,0.6c-1.9,2.3-1.7,5.7,0.6,7.6    c8,6.8,17,11.8,26.9,15v2.2c0,10.3-4.6,20.1-12.5,26.7v-19.1c0-3-2.4-5.4-5.4-5.4c-3,0-5.4,2.4-5.4,5.4v29.9c0,2,1.1,3.9,3,4.8    c0.8,0.4,1.6,0.6,2.4,0.6c1.1,0,2.3-0.4,3.2-1.1l7.1-5.3c11.3-8.4,18.1-21.9,18.3-36c5.7,1,11.6,1.6,17.9,1.6    c1.4,0,33.1-0.3,44.5-24.9c13-0.3,54.5-3.8,58.5-35.8C431.3,254.3,429.2,251.6,426.3,251.2z"/><path class="st33" d="M184,266.6c-3,0-5.4,2.4-5.4,5.4v10.8c0,14.7,7,28.7,18.8,37.4l3.7,2.7c9.1,6.7,14.5,17.5,14.5,28.8v1.4    v77.4c0,7.1-2.4,13.4-6.5,17.3c-5.6,5.3-16.5,7.4-20.2,7.8c-2.9,0.3-5,2.8-4.8,5.6c0.1,2.9,2.5,5.1,5.4,5.1h92h16.8h2.8    c3,0,5.4-2.4,5.4-5.4c0-3-2.4-5.4-5.4-5.4h-2.8h-11.4v-62.6l22.8-23.1c9.2-9.3,14.8-21.5,16-34.5c0.3-3-1.9-5.6-4.9-5.8    c-2.9-0.3-5.6,1.9-5.8,4.9c-0.9,10.5-5.5,20.4-12.9,27.8l-24.4,24.7c-1,1-1.6,2.4-1.6,3.8v64.8h-59.5c6.4-6,9.9-15,9.9-25.2v-77.4    v-1.4v-59.7c0-3-2.4-5.4-5.4-5.4c-3,0-5.4,2.4-5.4,5.4V322c-2.4-2.8-5-5.4-8.1-7.7l-3.7-2.7c-9.1-6.7-14.5-17.5-14.5-28.8V272    C189.4,269,187,266.6,184,266.6z"/><path class="st33" d="M165.4,76.4c-1.4,1.3-2.8,2.7-4.1,4.1c-2,2.2-1.9,5.6,0.2,7.6c1,1,2.4,1.5,3.7,1.5c1.4,0,2.9-0.6,3.9-1.7    c1.2-1.2,2.4-2.4,3.6-3.6c2.2-2,2.3-5.4,0.2-7.6C171,74.5,167.6,74.4,165.4,76.4z"/><path class="st33" d="M345.5,136.4c-0.8,2.9,0.9,5.8,3.7,6.6c0.5,0.1,1,0.2,1.4,0.2c2.4,0,4.5-1.6,5.2-3.9c0.6-2,0.9-4.5,1.1-7.5    c0.6-11.5-2-22.9-7.5-33.1c-17.4-32.4-56.9-53.3-100.7-53.3c-21,0-41.4,4.8-59,13.8c-2.6,1.4-3.7,4.6-2.3,7.3    c1.4,2.6,4.6,3.7,7.3,2.3c16.1-8.3,34.8-12.6,54-12.6c39.9,0,75.7,18.7,91.2,47.6c4.5,8.4,6.7,17.9,6.2,27.5    C346.1,134,345.8,135.6,345.5,136.4z"/><path class="st33" d="M427.2,166.8c-6-19.8-21-36.6-41.7-46.5c-2.7-1.3-5.9-0.1-7.2,2.6c-1.3,2.7-0.1,5.9,2.6,7.2    c19,9,32.4,24.7,36.9,42.9c0.5,2.2,2.4,3.8,4.6,4.1c23.3,2.6,40.8,13.1,40.8,24.5c0,11.9-21.5,25.1-52.3,25.1    c-1.7,0-3.5,0-5.3-0.1c-1.5-0.1-3,0.5-4.1,1.6c-14.1,14.2-34.5,22.3-56.1,22.3c-11.5,0-22.5-2.2-32.8-6.6c-2.1-0.9-4.4-0.4-6,1.2    c-13.3,13.8-33.2,21.6-54.7,21.6c-24.4,0-46.6-10.2-59.4-27.2c-1.6-2.1-4.5-2.8-6.8-1.5c-15.2,8.1-35.3,12.5-56.6,12.5    c-43.5,0-80.2-19.2-80.2-41.9c0-15.6,17.5-30.3,44.5-37.4c1.8-0.5,3.3-1.9,3.8-3.7c5.6-20,24.1-33.9,44.9-33.9    c0.8,0,1.6,0,2.5,0.1c2.9,0.1,5.4-2,5.6-4.9c0.6-6.5,2.2-13,4.8-19.2c1.2-2.7-0.1-5.9-2.8-7.1c-2.7-1.2-5.9,0.1-7.1,2.8    c-2.4,5.7-4.1,11.5-5,17.5c-23.7,0.8-44.6,16.4-52.3,38.8c-30.7,8.9-49.7,26.8-49.7,47.1c0,29.5,40,52.7,91,52.7    c21.2,0,41.4-4.1,57.6-11.7c15.1,17.6,39.1,28,65.2,28c23,0,44.6-8.1,59.8-22.4c10.6,4.1,21.9,6.1,33.6,6.1c23.5,0,46-8.6,62-23.8    c1.2,0,2.4,0.1,3.5,0.1c35.4,0,63.1-15.8,63.1-35.9C473.9,184.9,454.9,170.9,427.2,166.8z"/><path class="st33" d="M79.2,266.6c-3,0-5.4,2.4-5.4,5.4v121.2h-8.6c-3,0-5.4,2.4-5.4,5.4v5.8c0,11.6,9.4,21,21,21h50    c11.6,0,21-9.4,21-21v-5.8c0-3-2.4-5.4-5.4-5.4h-9V281c0-3-2.4-5.4-5.4-5.4s-5.4,2.4-5.4,5.4v112.2H84.6V272    C84.6,269,82.2,266.6,79.2,266.6z M141.1,404.4c0,5.6-4.6,10.2-10.2,10.2h-50c-5.6,0-10.2-4.6-10.2-10.2v-0.4h70.5V404.4z"/><path class="st33" d="M448.3,455.7h-0.1c-3,0-5.3,2.4-5.3,5.4c0,3,2.5,5.4,5.4,5.4s5.4-2.4,5.4-5.4    C453.7,458.1,451.3,455.7,448.3,455.7z"/></g></g></svg>