<?xml version="1.0" ?><!DOCTYPE svg  PUBLIC '-//W3C//DTD SVG 1.1//EN'  'http://www.w3.org/Graphics/SVG/1.1/DTD/svg11.dtd'><svg height="512px" id="icon" style="enable-background:new 0 0 512 512;" version="1.1" viewBox="0 0 512 512" width="512px" xml:space="preserve" xmlns="http://www.w3.org/2000/svg" xmlns:xlink="http://www.w3.org/1999/xlink"><style type="text/css">
<![CDATA[
	.st0{fill:#E0B792;}
	.st1{fill:#E8587E;}
	.st2{fill:#E8E8E8;}
	.st3{fill:#E9FFFF;}
	.st4{fill:#B5B5B5;}
	.st5{fill:#EFCDB7;}
	.st6{fill:#8D8D8D;}
	.st7{fill:#F3F3F3;}
	.st8{fill:#F55F6A;}
	.st9{fill:#C0C0C0;}
	.st10{fill:#FAB252;}
	.st11{fill:#C7824F;}
	.st12{fill:#C7E5BF;}
	.st13{fill:#FCB67C;}
	.st14{fill:#FCE3CF;}
	.st15{fill:#FF8D9C;}
	.st16{fill:#FF9182;}
	.st17{fill:#FF9CB2;}
	.st18{fill:#FFA991;}
	.st19{fill:#FFC5BC;}
	.st20{fill:#FFC8D5;}
	.st21{fill:#FFCAD7;}
	.st22{fill:#FFD9E5;}
	.st23{fill:#FFE3C0;}
	.st24{fill:#FFE990;}
	.st25{fill:#FFF4E4;}
	.st26{fill:#FFF8CD;}
	.st27{fill:#FFFFF6;}
	.st28{fill:#FFFFF8;}
	.st29{fill:#FFFFFF;}
	.st30{fill:#62ACCC;}
	.st31{fill:#666666;}
	.st32{fill:#688F5E;}
	.st33{fill:#333333;}
	.st34{fill:#D3A98C;}
	.st35{fill:#D9D9D9;}
	.st36{fill:#A07657;}
	.st37{fill:#A0C797;}
	.st38{fill:#737373;}
	.st39{fill:#76B9DE;}
	.st40{fill:#A6A6A6;}
	.st41{fill:#A7DBFC;}
]]>
</style><g><g><g><path class="st41" d="M466.3,392.2c1.4-0.5,2.2-0.7,2.2-0.7c-29.1-17.8-52.8-2.8-52.8-2.8c-1.4-16-7.5-29.1-13.1-38     c-7.2-11.6-18.4-20.4-31.6-23.8c-11.2-2.9-21.3-1.7-29.2,0.6c-11.4,3.3-19.6,13.4-20.7,25.2c-0.8,9.1,0.1,20.7,6.2,31.7     c6.6,12,17.9,20.6,30.9,24.7c10,3.2,24.3,5.9,40.1,3.2c0,0-8.6,26.6,15.8,50.4c0,0,0.1-5.3,1.7-13.4     C421.5,422.7,440.6,400.9,466.3,392.2z"/><path class="st39" d="M414.3,462.6c0,0,0.1-5.3,1.7-13.4c5.4-26.6,24.6-48.4,50.3-57c1.4-0.5,2.2-0.7,2.2-0.7     c-29.1-17.8-52.8-2.8-52.8-2.8c-0.5-6.3-1.8-12.2-3.5-17.5c-37.8,21.5-70.2,8.1-91-7.2c0.6,6.5,2.4,13.5,6.2,20.3     c6.6,12,17.9,20.6,30.9,24.7c10,3.2,24.3,5.9,40.1,3.2C398.5,412.2,389.8,438.9,414.3,462.6z"/><path class="st3" d="M366.4,347.2c9.6,0,18.3-3.8,24.6-10c-5.8-4.8-12.5-8.5-20-10.4c-11.2-2.9-21.3-1.7-29.2,0.6     c-2.1,0.6-4.1,1.5-6,2.5C342.1,340.3,353.4,347.2,366.4,347.2z"/></g><g><g><path class="st17" d="M43.5,449.6c2.4-72.6,22.7-297.5,180-408.1c3.6-2.5,8.5-1.7,11.1,1.8l0,0c2.6,3.5,2,8.4-1.4,11.1      C204.2,77.4,84,189.5,92.3,449.5c0.4,12-9.1,22-21.1,22.3l-5.3,0.1C53.3,472.4,43.1,462.1,43.5,449.6z"/><path class="st1" d="M92.3,449.5c-1.8-56.4,2.5-105.9,10.5-149c-3.8,4.2-7.9,8.1-12.5,11.3c-11.4,8-19.3,20.1-22,33.8      c-2.2,11-4.5,24.5-5.9,38.9c-0.9,9.7-7.2,17.8-16,21.2c-1.7,17.6-2.5,32.5-2.9,43.8c-0.4,12.5,9.8,22.8,22.4,22.5l5.3-0.1      C83.1,471.6,92.6,461.5,92.3,449.5z"/></g><g><circle class="st9" cx="103.9" cy="370.2" r="29.5"/><path class="st7" d="M74.4,370.2c0,6.6,2.2,12.7,5.8,17.6c3,1.1,6.3,1.8,9.7,1.8c15.5,0,28.1-12.6,28.1-28.1      c0-8-3.3-15.2-8.7-20.3c-1.8-0.3-3.6-0.5-5.5-0.5C87.6,340.7,74.4,353.9,74.4,370.2z"/></g></g></g><g><path class="st33" d="M65.2,477.4c0.3,0,0.5,0,0.8,0l5.3-0.1c7.3-0.2,14-3.2,19-8.5c5-5.3,7.6-12.1,7.3-19.4    c-0.3-10-0.4-20.1-0.4-29.9c0-3-2.4-5.4-5.4-5.4c0,0,0,0,0,0c-3,0-5.4,2.4-5.4,5.4c-0.1,9.9,0.1,20.1,0.4,30.3    c0.1,4.3-1.4,8.5-4.4,11.6c-3,3.2-7.1,5-11.5,5.2l-5.3,0.1c-4.6,0.1-8.9-1.6-12.1-4.8c-3.2-3.2-4.9-7.5-4.8-12.1    c2.2-67,21.5-294,177.7-403.9c1.2-0.8,2.8-0.6,3.7,0.6c0.9,1.1,0.7,2.7-0.4,3.6c-24.6,19.7-107.1,96.7-134.4,261.7    c-0.5,2.9,1.5,5.7,4.4,6.2c2.9,0.5,5.7-1.5,6.2-4.4c26.7-161.2,106.7-236,130.5-255.1c5.7-4.5,6.7-12.7,2.3-18.5    c-4.4-5.8-12.5-7.1-18.5-2.9C152,85.2,101.5,159.5,70.3,258.2C45.2,337.5,39.3,412,38.1,449.4c-0.2,7.6,2.6,14.7,7.9,20.1    C51.2,474.6,58,477.4,65.2,477.4z"/><path class="st33" d="M429.6,383.4c0.2,3,2.8,5.2,5.8,4.9c6.6-0.5,13.2,0.3,19.7,2.7c-22.6,11-39.2,32.1-44.4,57.2    c-0.1,0.5-0.2,1.1-0.3,1.6c-12.2-18.1-7.1-35.1-6.9-35.9c0.6-1.8,0.2-3.8-1-5.2c-1.2-1.4-3.1-2.1-5-1.8c-15.2,2.5-28.8-0.3-37.6-3    c-12.2-3.9-22.1-11.7-27.9-22.2c-4.6-8.3-6.5-17.9-5.5-28.6c0.8-9.6,7.6-17.8,16.8-20.5c8.9-2.6,17.7-2.8,26.3-0.6    c11.6,3,21.7,10.7,28.4,21.5c4.9,7.8,11,20.3,12.3,35.7c0.3,3,2.9,5.2,5.8,4.9c3-0.3,5.2-2.9,4.9-5.8    c-1.5-17.4-8.4-31.6-13.9-40.4c-8.2-13.2-20.6-22.5-34.8-26.2c-10.5-2.7-21.2-2.5-32,0.6c-13.4,3.9-23.3,15.9-24.5,29.9    c-1.1,12.9,1.2,24.6,6.8,34.8c7.1,12.9,19.2,22.5,34,27.2c8.4,2.7,20.9,5.3,35.1,4.3c-1.1,10.6,0.2,30.1,18.7,48.1    c1,1,2.4,1.5,3.7,1.5c0.7,0,1.4-0.1,2.1-0.4c2-0.8,3.3-2.7,3.3-4.9c0,0,0.1-5,1.6-12.4c5.1-24.7,23-45,46.7-53    c1.2-0.4,1.9-0.6,2-0.6c2.1-0.6,3.6-2.3,3.9-4.4c0.3-2.1-0.7-4.2-2.5-5.3c-11.8-7.2-24.2-10.4-36.8-9.3    C431.6,377.9,429.4,380.5,429.6,383.4z"/><path class="st33" d="M426,113.7c-0.2,1.3-0.4,2.7-0.6,4c-4.3,26.6-19.8,51-42.4,67.1c-20.5,14.6-42.9,24.3-66.5,28.9    c-37.1,7.2-53.5,32.3-56.5,53.5c-3.4,23.9,8.4,46.4,30,57.5c0.8,0.4,1.6,0.6,2.4,0.6c2,0,3.8-1.1,4.8-2.9c1.4-2.6,0.3-5.9-2.3-7.2    c-17.5-8.9-27-27.1-24.3-46.4c2.5-17.5,16.3-38.3,47.9-44.4c25.1-4.9,48.9-15.2,70.6-30.7c25-17.8,42-44.8,46.8-74.2    c0.2-1.5,0.5-3,0.6-4.4c0.4-3-1.7-5.6-4.7-6C429,108.6,426.3,110.7,426,113.7z"/><path class="st33" d="M423,83.5c0.8,2.1,2.9,3.4,5,3.4c0.7,0,1.3-0.1,2-0.4c2.8-1.1,4.1-4.2,3.1-7c-0.7-1.7-1.4-3.3-2.2-4.9    c-1.3-2.7-4.6-3.7-7.2-2.4c-2.7,1.3-3.7,4.6-2.4,7.2C421.9,80.8,422.5,82.1,423,83.5z"/><path class="st33" d="M222.5,92.6c1.1,1.1,2.5,1.7,3.9,1.7c1.3,0,2.6-0.5,3.7-1.5c40.2-37.8,88.1-52.2,142.2-42.8    c10.5,1.8,19.6,4.7,27.1,8.5c2.7,1.4,5.9,0.3,7.2-2.3c1.4-2.6,0.3-5.9-2.3-7.2c-8.4-4.3-18.6-7.5-30.2-9.5    c-57.6-10-108.6,5.4-151.4,45.6C220.6,87.1,220.5,90.5,222.5,92.6z"/><path class="st33" d="M154.4,210.2c2.2,0,4.3-1.4,5.1-3.7c10.9-32.2,28.5-64.3,51.1-93.2l0.6,0.5c1,0.8,2.2,1.2,3.4,1.2    c1.6,0,3.1-0.7,4.2-2c1.9-2.3,1.5-5.7-0.8-7.6l-5.5-4.5c-2.3-1.9-5.7-1.5-7.6,0.8c-0.7,0.9-1.1,1.9-1.2,3    c-24.1,30.3-42.9,64.3-54.4,98.4c-1,2.8,0.6,5.9,3.4,6.8C153.3,210.1,153.8,210.2,154.4,210.2z"/><path class="st33" d="M151.5,232.4l0.6-2c0.8-2.9-0.8-5.8-3.7-6.7c-2.9-0.8-5.8,0.8-6.7,3.7l-0.6,2c-0.8,2.9,0.9,5.8,3.7,6.6    c0.5,0.1,1,0.2,1.5,0.2C148.7,236.4,150.9,234.8,151.5,232.4z"/><path class="st33" d="M141.5,249.5c-2.9-0.7-5.8,1.1-6.5,4c-8.4,35.5-12.6,67-14.6,85.9c-4.9-2.6-10.5-4.1-16.4-4.1    c-19.2,0-34.9,15.6-34.9,34.9S84.7,405,103.9,405c4.9,0,9.6-1,14-2.9c2.7-1.2,4-4.4,2.8-7.1c-1.2-2.7-4.4-4-7.1-2.8    c-3.1,1.3-6.3,2-9.7,2c-13.3,0-24.1-10.8-24.1-24.1c0-13.3,10.8-24.1,24.1-24.1c13.3,0,24.1,10.8,24.1,24.1c0,2.2-0.3,4.3-0.9,6.4    l-20.7-11.1c-2.6-1.4-5.9-0.4-7.3,2.2c-1.4,2.6-0.4,5.9,2.2,7.3l33.4,18c0.8,0.4,1.7,0.6,2.6,0.6c1.9,0,3.8-1,4.7-2.8    c1.4-2.6,0.4-5.9-2.2-7.3l-3.1-1.7c1.3-3.7,2-7.6,2-11.6c0-8.6-3.2-16.5-8.4-22.6c1.6-17.2,5.7-51.8,15.1-91.5    C146.1,253.1,144.4,250.2,141.5,249.5z"/><path class="st33" d="M340.5,348c-1.9,2.3-1.6,5.7,0.7,7.6l1.6,1.3c1,0.8,2.2,1.2,3.4,1.2c1.5,0,3.1-0.7,4.1-1.9    c1.9-2.3,1.6-5.7-0.7-7.6l-1.6-1.3C345.8,345.4,342.4,345.8,340.5,348z"/></g></g></svg>