<?xml version="1.0" ?><!DOCTYPE svg  PUBLIC '-//W3C//DTD SVG 1.1//EN'  'http://www.w3.org/Graphics/SVG/1.1/DTD/svg11.dtd'><svg height="512px" id="icon" style="enable-background:new 0 0 512 512;" version="1.1" viewBox="0 0 512 512" width="512px" xml:space="preserve" xmlns="http://www.w3.org/2000/svg" xmlns:xlink="http://www.w3.org/1999/xlink"><style type="text/css">
<![CDATA[
	.st0{fill:#E0B792;}
	.st1{fill:#E8587E;}
	.st2{fill:#E8E8E8;}
	.st3{fill:#E9FFFF;}
	.st4{fill:#B5B5B5;}
	.st5{fill:#EFCDB7;}
	.st6{fill:#8D8D8D;}
	.st7{fill:#F3F3F3;}
	.st8{fill:#F55F6A;}
	.st9{fill:#C0C0C0;}
	.st10{fill:#FAB252;}
	.st11{fill:#C7824F;}
	.st12{fill:#C7E5BF;}
	.st13{fill:#FCB67C;}
	.st14{fill:#FCE3CF;}
	.st15{fill:#FF8D9C;}
	.st16{fill:#FF9182;}
	.st17{fill:#FF9CB2;}
	.st18{fill:#FFA991;}
	.st19{fill:#FFC5BC;}
	.st20{fill:#FFC8D5;}
	.st21{fill:#FFCAD7;}
	.st22{fill:#FFD9E5;}
	.st23{fill:#FFE3C0;}
	.st24{fill:#FFE990;}
	.st25{fill:#FFF4E4;}
	.st26{fill:#FFF8CD;}
	.st27{fill:#FFFFF6;}
	.st28{fill:#FFFFF8;}
	.st29{fill:#FFFFFF;}
	.st30{fill:#62ACCC;}
	.st31{fill:#666666;}
	.st32{fill:#688F5E;}
	.st33{fill:#333333;}
	.st34{fill:#D3A98C;}
	.st35{fill:#D9D9D9;}
	.st36{fill:#A07657;}
	.st37{fill:#A0C797;}
	.st38{fill:#737373;}
	.st39{fill:#76B9DE;}
	.st40{fill:#A6A6A6;}
	.st41{fill:#A7DBFC;}
]]>
</style><g><g><g><g><rect class="st0" height="152" width="31.1" x="346.7" y="291.8"/><path class="st36" d="M365.6,291.8h-18.9v37.3h2c9.3,0,16.8,7.5,16.8,16.8v97.9h12.2V329.1v-37.3H365.6z"/><path class="st14" d="M346.7,359.4v84.4h11.6v-71.6C358.3,365.6,353.3,360.1,346.7,359.4z"/></g><g><path class="st32" d="M258.4,225.8c1.6,8.3,4.7,16.3,9.2,23.5c11.6,18.9,40.5,54.5,92.8,54.5c0,0,30-0.7,51.6-22.2      c0,0,54-1.5,59.7-52.9c0,0,5-50.2-27.7-67.8c0,0-4.6-51.6-63.3-54.8c0,0-39.8-2.6-56.8,33.9c0,0-1.1,0-3,0.2      c-41.2,4.4-69.9,43.1-62.7,83.8C258.2,224.7,258.3,225.3,258.4,225.8z"/><path class="st37" d="M431.8,135.4c-0.1-1.6-0.2-3.2-0.3-4.8c-9-11.9-24.5-23.1-50.9-24.6c0,0-39.8-2.6-56.8,33.9      c0,0-1.1,0-3,0.2c-41.2,4.4-69.9,43.1-62.7,83.8c0.1,0.6,0.2,1.2,0.3,1.7c1.1,5.9,3.1,11.7,5.7,17.1c19.5,0,72.4,0,72.4,0      s58.9,0.9,72.5-57.2C414,164.2,422.8,147.7,431.8,135.4z"/><path class="st12" d="M267.8,173.7c8.2,5,17.9,8,28.2,8c29.8,0,53.9-24.1,53.9-53.9c0-4.8-0.6-9.5-1.8-13.9      c-9.1,5-18.1,13-24.2,26.1c0,0-1.1,0-3,0.2C298,142.7,279,155.7,267.8,173.7z"/></g></g><g><g><path class="st32" d="M76.7,283.4c0,0-45-16-35.3-78c0,0-16.2-103.6,93-133.5c0,0,123.2-29.9,122.1,80.2c0,0,44.8,0.6,54.2,51.3      c3.3,17.7,0.6,36.1-8.7,51.5c-4.8,8-11.7,15.6-21,19c0,0,15.4,51-23.3,62.8c-5.4,1.7-11.2,1.9-16.8,1.2      c-7.3-0.9-20.9-1.1-32.5,7.1c-4.7,3.4-9.7,6.4-15.1,8.5c-7,2.8-16.4,5.7-25.4,5.7c0,0-10.5,1.9-25.1-10.1      c-12.1-9.9-26.9-16-42.5-16.8c-1.8-0.1-3.6-0.1-5.4-0.1c0,0-21.3,2-27.4-21.2C62.9,293.5,76.7,283.4,76.7,283.4z"/><path class="st37" d="M171.7,243.8c18.8,0,37.4-4.7,53.6-14.2c20.5-12,41.9-34.1,47.1-74.2c-8.9-3.2-15.8-3.3-15.8-3.3      C257.7,42,134.5,71.9,134.5,71.9c-109.3,29.9-93,133.5-93,133.5C36,240,47.7,260.3,59,271.5c10.7-1.5,22.9-5.5,31.6-14.9      c7.3-7.9,17.3-12.8,28.1-12.8H171.7z"/><path class="st12" d="M172.9,68.2c-21.4-0.5-38.5,3.7-38.5,3.7c-58,15.9-80.7,52.6-89.1,83.4c10.5,4.1,22,6.4,34,6.4      C131,161.7,172.9,119.9,172.9,68.2z"/></g><g><path class="st0" d="M212.7,265.5v9.8c0,7.8-4.7,14.9-11.9,17.8c-4.7,1.9-9.6,3.5-13.3,4.5v-32.2h-37.2v178.4h37.2V341.5      c8.6-12.6,19.7-23,28.9-30.3c10.7-8.6,16.8-21.6,16.8-35.3v-10.5H212.7z"/><path class="st36" d="M233,278.8c0.1-0.9,0.1-1.9,0.1-2.8v-10.5h-20.4v9.8c0,0.5,0,1.1-0.1,1.6c0,0.1,0,0.2,0,0.3      c0,0.4-0.1,0.9-0.2,1.3c0,0.1,0,0.1,0,0.2c-0.1,0.5-0.2,0.9-0.3,1.4c0,0,0,0,0,0.1c-0.1,0.5-0.3,1-0.4,1.5      c-1.8,5.1-5.7,9.4-10.9,11.5c-4.7,1.9-9.6,3.5-13.3,4.5v-16v-16.1H174h-23.7v16.1h6.8c9.3,0,16.8,7.5,16.8,16.8v145.4h13.5      V341.5c8.6-12.6,19.7-23,28.9-30.3c9.2-7.4,15-18,16.4-29.6l0,0c0,0,0,0,0,0c0.1-0.9,0.2-1.8,0.3-2.7      C233,278.8,233,278.8,233,278.8z"/><path class="st14" d="M150.3,313.2v130.6h12V330C162.3,322.2,157.3,315.5,150.3,313.2z"/></g><path class="st32" d="M53.2,277.8"/></g></g><g><path class="st33" d="M448.9,157.5c-2.1-11.6-13.6-53.8-67.9-56.8c-0.4,0-41.6-2.3-60.6,34.2c0,0-0.1,0-0.1,0    c-6.8,0.7-13.4,2.4-19.7,4.8c-2.8,1.1-4.1,4.2-3.1,7c1.1,2.8,4.2,4.1,7,3.1c5.4-2.1,11.1-3.5,17-4.1c1.7-0.2,2.7-0.2,2.7-0.2    c2-0.1,3.8-1.3,4.7-3.1c15.2-32.7,50.1-30.9,51.6-30.8c53.2,3,58.1,48,58.3,49.9c0.2,1.8,1.2,3.4,2.8,4.3    c29.1,15.7,24.9,62.1,24.9,62.5c-2.2,20.5-12.9,34.9-31.7,42.8c-2.7,1.2-4,4.3-2.9,7.1c0.9,2.1,2.9,3.3,5,3.3    c0.7,0,1.4-0.1,2.1-0.4c15.6-6.6,34.9-20.8,38.3-51.6C477.2,227.1,481.7,177.6,448.9,157.5z"/><path class="st33" d="M124.9,344.1c5.1,2.4,10,5.6,14.5,9.2c1.8,1.5,3.7,2.9,5.5,4.1v81h-13.7c-3,0-5.4,2.4-5.4,5.4    c0,3,2.4,5.4,5.4,5.4h19.1h37.2h17c3,0,5.4-2.4,5.4-5.4c0-3-2.4-5.4-5.4-5.4h-11.6v-95.2c8.4-11.9,19.2-21.6,26.8-27.8    c12-9.6,18.8-24,18.8-39.5v-5.1h3.6c3,0,5.4-2.4,5.4-5.4s-2.4-5.4-5.4-5.4h-9h-20.4c-3,0-5.4,2.4-5.4,5.4v9.8    c0,5.7-3.4,10.7-8.6,12.8c-1.8,0.7-3.8,1.5-5.9,2.2v-24.8c0-3-2.4-5.4-5.4-5.4h-37.2h-15.8c-3,0-5.4,2.4-5.4,5.4s2.4,5.4,5.4,5.4    h10.4V344c-4.8-3.8-10-7.1-15.4-9.6c-2.7-1.3-5.9-0.1-7.2,2.5C121,339.6,122.2,342.8,124.9,344.1z M184.2,301.9    c1.4,1,3.1,1.3,4.7,0.9c5.1-1.5,9.8-3.1,13.8-4.7c9.3-3.8,15.3-12.7,15.3-22.8v-4.5h9.6v5.1c0,12.2-5.4,23.5-14.8,31.1    c-8.5,6.8-20.6,17.8-29.9,31.4c-0.6,0.9-0.9,2-0.9,3v96.9h-26.4V270.8h26.4v26.8C182.1,299.3,182.9,300.9,184.2,301.9z"/><path class="st33" d="M146.1,75.3c27-3.9,91.1-6.3,103.1,53.6c0.5,2.6,2.8,4.3,5.3,4.3c0.3,0,0.7,0,1.1-0.1    c2.9-0.6,4.8-3.4,4.2-6.3c-5.9-29.7-24.2-50-52.9-58.8c-23.6-7.2-49.1-5.2-62.2-3.3c-2.9,0.4-5,3.1-4.6,6.1    C140.4,73.6,143.2,75.7,146.1,75.3z"/><path class="st33" d="M114.7,84c0.7,0,1.4-0.1,2.1-0.4c0.8-0.3,1.6-0.6,2.4-1c2.8-1.1,4.1-4.2,3-7c-1.1-2.8-4.2-4.1-7-3    c-0.9,0.3-1.7,0.7-2.5,1c-2.7,1.1-4.1,4.3-2.9,7C110.5,82.8,112.5,84,114.7,84z"/><path class="st33" d="M51.3,271.1c5.7,6.7,11.8,11.1,16.4,13.8c-4.3,5.6-8.7,14.9-5.4,27.5c5.3,20.1,21.4,25.2,30.9,25.2    c0.8,0,1.5,0,2.2-0.1c3-0.3,5.1-2.9,4.9-5.9c-0.3-3-2.9-5.1-5.9-4.9c-0.7,0.1-16.8,1.4-21.7-17.2c-3.6-13.7,6.7-21.7,7.1-22    c1.6-1.2,2.4-3.1,2.1-5.1c-0.3-2-1.6-3.6-3.5-4.3c-1.7-0.6-40.6-15.6-31.8-72.1c0.1-0.5,0.1-1.1,0-1.7    c-0.1-0.7-9.5-65.8,41.8-104.9c2.4-1.8,2.8-5.2,1-7.5c-1.8-2.4-5.2-2.8-7.5-1c-53.8,41.1-47.2,105.7-46,114.3    C31,238.9,41.5,259.6,51.3,271.1z"/><path class="st33" d="M113.7,270.8h2c3,0,5.4-2.4,5.4-5.4s-2.4-5.4-5.4-5.4h-2c-3,0-5.4,2.4-5.4,5.4S110.7,270.8,113.7,270.8z"/><path class="st33" d="M105.2,449.2h4.4c3,0,5.4-2.4,5.4-5.4c0-3-2.4-5.4-5.4-5.4h-4.4c-3,0-5.4,2.4-5.4,5.4    C99.8,446.8,102.3,449.2,105.2,449.2z"/><path class="st33" d="M256.8,146.7c-6.6-0.4-13,0.1-18.9,1.5c-2.9,0.7-4.7,3.5-4.1,6.4c0.7,2.9,3.5,4.7,6.4,4.1    c4.9-1.1,10.3-1.5,15.9-1.2c0.1,0,0.1,0,0.2,0c0.1,0,10,0.2,21.1,6c14.9,7.8,24.2,21.6,27.8,40.9c3.1,17,0.3,34-8,47.7    c-5.2,8.6-11.3,14.2-18.3,16.7c-2.7,1-4.1,3.9-3.3,6.6c0,0.1,3.5,12,2.6,25c-1.1,16.4-8.7,26.9-22.3,31c-4.4,1.3-9.3,1.7-14.6,1    c-7.1-0.9-20.9-1.2-33.4,6.2c-2.6,1.5-3.4,4.8-1.9,7.4c1,1.7,2.8,2.6,4.6,2.6c0.9,0,1.9-0.2,2.8-0.8c9.7-5.8,20.8-5.5,26.5-4.8    c6.8,0.8,13.2,0.4,19-1.4c32.1-9.8,32.8-44.4,28.1-64.9c7.4-3.9,13.8-10.3,19.3-19.3c9.7-16,13-35.7,9.4-55.3    C306.3,149.8,260.4,146.9,256.8,146.7z"/><path class="st33" d="M360.6,298.5c-0.1,0-0.2,0-0.2,0c-16.8,0-32.5-3.9-46.7-11.6c-2.6-1.4-5.9-0.5-7.3,2.2s-0.5,5.9,2.2,7.3    c15.7,8.6,33.2,12.9,51.8,12.9c0.2,0,0.6,0,1.3,0c2,0,5.9-0.1,10.9-0.9v130h-20.3V325.2c0-3-2.4-5.4-5.4-5.4c-3,0-5.4,2.4-5.4,5.4    v113.2h-49.6v-51.3V385c0-8,3.5-15.5,9.5-20.7l4.5-3.9c8.4-7.3,13.2-17.8,13.2-28.9v-2.4c0-3-2.4-5.4-5.4-5.4    c-3,0-5.4,2.4-5.4,5.4v2.4c0,8-3.5,15.5-9.5,20.7l-4.5,3.9c-0.9,0.7-1.7,1.5-2.4,2.3V348c0-3-2.4-5.4-5.4-5.4    c-3,0-5.4,2.4-5.4,5.4V385v2.1v7c-0.4-0.3-0.8-0.7-1.2-1l-16.7-13c-5-3.9-7.8-9.7-7.8-16v-0.9c0-3-2.4-5.4-5.4-5.4    c-3,0-5.4,2.4-5.4,5.4v0.9c0,9.6,4.4,18.6,12,24.5l16.7,13c5,3.9,7.8,9.7,7.8,16v20.8h-19.5c-3,0-5.4,2.4-5.4,5.4    c0,3,2.4,5.4,5.4,5.4h85.3h31.1h34.4c3,0,5.4-2.4,5.4-5.4c0-3-2.4-5.4-5.4-5.4h-29v-71.1c0-8,3.8-15.6,10.2-20.4l9.9-7.4    c6.9-5.2,11.1-13.5,11.1-22.2v-7.5c0-3-2.4-5.4-5.4-5.4s-5.4,2.4-5.4,5.4v7.5c0,5.3-2.5,10.4-6.8,13.6l-9.9,7.4    c-1.3,1-2.6,2.1-3.7,3.3v-35.4c10.7-3.1,23.3-9.2,32.9-21c13-15.9,8.7-33.9,8.5-34.7c-0.7-2.9-3.7-4.6-6.5-3.9    c-2.9,0.7-4.6,3.7-3.9,6.5c0,0.1,3.2,13.4-6.4,25.2C390.5,299.4,360.9,298.5,360.6,298.5z"/><path class="st33" d="M437.1,449.2c3,0,5.4-2.4,5.4-5.4c0-3-2.4-5.4-5.4-5.4h-3.4c-3,0-5.4,2.4-5.4,5.4c0,3,2.4,5.4,5.4,5.4H437.1    z"/></g></g></svg>