<?xml version="1.0" ?><!DOCTYPE svg  PUBLIC '-//W3C//DTD SVG 1.1//EN'  'http://www.w3.org/Graphics/SVG/1.1/DTD/svg11.dtd'><svg height="512px" id="icon" style="enable-background:new 0 0 512 512;" version="1.1" viewBox="0 0 512 512" width="512px" xml:space="preserve" xmlns="http://www.w3.org/2000/svg" xmlns:xlink="http://www.w3.org/1999/xlink"><style type="text/css">
<![CDATA[
	.st0{fill:#E0B792;}
	.st1{fill:#E8587E;}
	.st2{fill:#E8E8E8;}
	.st3{fill:#E9FFFF;}
	.st4{fill:#B5B5B5;}
	.st5{fill:#EFCDB7;}
	.st6{fill:#8D8D8D;}
	.st7{fill:#F3F3F3;}
	.st8{fill:#F55F6A;}
	.st9{fill:#C0C0C0;}
	.st10{fill:#FAB252;}
	.st11{fill:#C7824F;}
	.st12{fill:#C7E5BF;}
	.st13{fill:#FCB67C;}
	.st14{fill:#FCE3CF;}
	.st15{fill:#FF8D9C;}
	.st16{fill:#FF9182;}
	.st17{fill:#FF9CB2;}
	.st18{fill:#FFA991;}
	.st19{fill:#FFC5BC;}
	.st20{fill:#FFC8D5;}
	.st21{fill:#FFCAD7;}
	.st22{fill:#FFD9E5;}
	.st23{fill:#FFE3C0;}
	.st24{fill:#FFE990;}
	.st25{fill:#FFF4E4;}
	.st26{fill:#FFF8CD;}
	.st27{fill:#FFFFF6;}
	.st28{fill:#FFFFF8;}
	.st29{fill:#FFFFFF;}
	.st30{fill:#62ACCC;}
	.st31{fill:#666666;}
	.st32{fill:#688F5E;}
	.st33{fill:#333333;}
	.st34{fill:#D3A98C;}
	.st35{fill:#D9D9D9;}
	.st36{fill:#A07657;}
	.st37{fill:#A0C797;}
	.st38{fill:#737373;}
	.st39{fill:#76B9DE;}
	.st40{fill:#A6A6A6;}
	.st41{fill:#A7DBFC;}
]]>
</style><g><g><g><path class="st37" d="M239.1,247.7c-11.2-9.7-24.2-28.9-18.8-63.6c0,0-15-96,86.2-123.7c0,0,114.2-27.7,113.1,74.4     c0,0,41.5,0.5,50.2,47.5c3,16,0.7,32.7-7.5,46.8c-4.5,7.8-11,15.3-20.1,18.6c0,0,14.2,47.3-21.6,58.2c-5,1.5-10.4,1.8-15.6,1.1     c-6.8-0.8-19.5-1-30.2,6.7c-4.4,3.2-9.2,6-14.3,8c-6.4,2.5-14.9,5.1-23,5.1c0,0-9.7,1.7-23.2-9.3c-11.2-9.2-24.9-14.9-39.4-15.5     c-1.6-0.1-3.3-0.1-5-0.1l-8.1-21.8C257.1,267.4,249.2,256.4,239.1,247.7z"/><path class="st32" d="M462.4,229c8.2-14.1,10.5-30.8,7.5-46.8c-5.4-29.2-23.5-40.4-36.4-44.7c-4.6,28.6-23.3,71.3-93.4,71.3H309     c-13.3,0-24.3,10.1-25.7,23.3c-1.6,14.6-6.9,33.2-21.8,47.1c0.1,0.2,0.2,0.5,0.3,0.7l8.1,21.8c1.7,0,3.4,0,5,0.1     c14.5,0.7,28.2,6.4,39.4,15.5c13.5,11.1,23.2,9.3,23.2,9.3c8.1,0,16.6-2.5,23-5.1c5.1-2,9.9-4.8,14.3-8     c10.7-7.8,23.5-7.6,30.2-6.7c5.2,0.6,10.6,0.4,15.6-1.1c35.8-10.9,21.6-58.2,21.6-58.2C451.3,244.3,457.8,236.8,462.4,229z"/><polygon class="st0" points="327.8,234.6 361,234.6 361,416.7 328.5,416.7    "/><path class="st12" d="M328.2,57.3c-12.8,0.9-21.7,3-21.7,3c-64.9,17.8-82,63.6-86,94.2c1,0,2,0.1,3,0.1     C279,154.7,324.3,111.7,328.2,57.3z"/><path class="st36" d="M327.9,249.2c9.9,2.7,17.2,11.8,17.2,22.6v113.7v31.2H361V234.6h-33.2L327.9,249.2z"/><path class="st14" d="M327.9,263.5l0.6,148.9h9.6V280C338.1,272.8,334,266.5,327.9,263.5z"/></g><g><path class="st8" d="M358.3,395.1L358.3,395.1c-15.4-44.9-42.8-101.9-87-122.8c-7.4-3.5-15.4-5.2-23.3-5.2h-63.6v188h63.6h110.4     h16.2h29.6C372.9,436,358.3,395.1,358.3,395.1z"/><path class="st17" d="M294.6,395.1L294.6,395.1c-15.4-44.9-42.8-101.9-87-122.8c-14.8-7-31.9-7-46.7,0     C114.1,294.4,86,357.2,71.3,403v0c0,0,0,0,0,0.1c-0.4,1.3-0.9,2.7-1.3,4c-11.9,36.1-29.1,48-29.1,48h16.8h13.6h113h110.4h16.2     h29.6C309.2,436,294.6,395.1,294.6,395.1z"/><path class="st8" d="M294.6,395.1L294.6,395.1c-7.8-22.7-18.7-48.6-33.3-71.3c-28.1,41.7-83.8,83.3-194.3,91.4     C55.4,445,40.9,455,40.9,455h16.8h13.6h113h110.4h16.2h29.6C309.2,436,294.6,395.1,294.6,395.1z"/><path class="st38" d="M181.7,346.4L181.7,346.4c-20.5,0-37.1,16.6-37.1,37.1V455h74.2v-71.6C218.8,363,202.2,346.4,181.7,346.4z"/><path class="st20" d="M160.9,272.3c-31.5,14.9-54.5,48.1-70.6,82.2c1.3,0.1,2.6,0.1,3.9,0.1c48.3,0,87.5-39.2,87.6-87.5     C174.6,267.4,167.5,269.1,160.9,272.3z"/></g></g><g><path class="st33" d="M373.7,56.3c-22-6.7-45.6-4.8-57.8-3.1c-2.9,0.4-5,3.1-4.6,6.1c0.4,2.9,3.1,5,6.1,4.6    c24.9-3.6,84.1-5.9,95.1,49.4c0.5,2.6,2.8,4.3,5.3,4.3c0.3,0,0.7,0,1.1-0.1c2.9-0.6,4.8-3.4,4.2-6.3    C417.5,83.5,400.5,64.5,373.7,56.3z"/><path class="st33" d="M288.5,60.7c-0.8,0.3-1.6,0.6-2.4,1c-2.7,1.1-4.1,4.3-2.9,7c0.9,2.1,2.9,3.3,5,3.3c0.7,0,1.4-0.1,2.1-0.4    c0.7-0.3,1.5-0.6,2.2-0.9c2.8-1.1,4.1-4.2,3-7C294.4,61,291.2,59.6,288.5,60.7z"/><path class="st33" d="M264.3,86.4c2.4-1.8,2.8-5.2,1-7.5c-1.8-2.4-5.2-2.8-7.5-1c-49.9,38.1-43.9,98-42.8,106.2    c-4.8,32,5.6,51.5,15.2,62.3c1.1,1.2,2.5,1.8,4,1.8c1.3,0,2.6-0.5,3.6-1.4c2.2-2,2.4-5.4,0.4-7.6c-11.8-13.3-16-31.5-12.5-54.2    c0.1-0.5,0.1-1.1,0-1.7C225.6,182.6,216.9,122.5,264.3,86.4z"/><path class="st33" d="M420,129.3c-6.2-0.3-12.1,0.1-17.6,1.4c-2.9,0.7-4.7,3.6-4.1,6.4c0.7,2.9,3.5,4.7,6.4,4.1    c4.5-1,9.5-1.4,14.7-1.1c0.1,0,0.1,0,0.2,0c1.5,0,37.2,1.2,45,43.1c2.9,15.7,0.3,31.3-7.4,44c-4.8,7.9-10.4,13-16.7,15.3    c-2.7,1-4.1,3.9-3.3,6.6c0.5,1.7,12.2,42.3-18,51.5c-4,1.2-8.5,1.5-13.4,1c-4.2-0.5-10.6-0.8-17.6,0.6c-2.9,0.6-4.8,3.4-4.2,6.4    c0.5,2.5,2.8,4.3,5.3,4.3c0.4,0,0.7,0,1.1-0.1c5.6-1.1,10.7-0.9,14.1-0.5c6.3,0.8,12.3,0.3,17.8-1.3c29.9-9.1,30.7-41.1,26.4-60.3    c6.8-3.6,12.7-9.6,17.7-17.9c9-14.9,12.2-33.2,8.8-51.5C466.1,132.4,423.4,129.5,420,129.3z"/><path class="st33" d="M120.6,297c-0.9,1-1.7,2-2.6,3c-1.9,2.3-1.6,5.7,0.6,7.6c1,0.9,2.2,1.3,3.5,1.3c1.5,0,3-0.6,4.1-1.9    c0.8-0.9,1.6-1.9,2.4-2.8c2-2.2,1.8-5.6-0.5-7.6C126,294.6,122.5,294.8,120.6,297z"/><path class="st33" d="M40.9,460.4h295.4h4.1h63.6h11.9c3,0,5.4-2.4,5.4-5.4s-2.4-5.4-5.4-5.4h-10.3c-20.1-12.9-32.9-35.7-38.7-48    c0.1-0.3,0.1-0.6,0.1-1v-166c0-3-2.4-5.4-5.4-5.4h-33.1h-7c-3,0-5.4,2.4-5.4,5.4c0,3,2.4,5.4,5.4,5.4h1.6v47.8    c0,3,2.4,5.4,5.4,5.4c3,0,5.4-2.4,5.4-5.4v-47.8h22.4v134.1c-16.5-41.6-43-88-82.7-106.8c-8-3.8-16.8-5.7-25.6-5.7h-62.5    c-9.1-0.2-18.3,1.7-26.8,5.7c-7.7,3.6-15.1,8.4-22.3,14.3c-2.3,1.9-2.6,5.3-0.7,7.6c1.9,2.3,5.3,2.6,7.6,0.7    c6.4-5.3,13.2-9.6,20-12.9c6.6-3.1,13.7-4.7,20.9-4.7c0.1,0,0.1,0,0.2,0h0.9c6.9,0.1,13.7,1.7,20.1,4.7    c42.6,20.1,69.3,76.2,84.3,119.8c0.5,1.5,11.5,31.6,34.8,52.8H224.2v-66.2c0-23.4-19.1-42.5-42.5-42.5    c-23.4,0-42.5,19.1-42.5,42.5v66.2H53.8c6.4-7.8,14.7-20.9,21.3-41c0.4-1.3,0.8-2.6,1.3-4c9.6-29.8,21.1-55.4,34.2-76.1    c1.6-2.5,0.8-5.8-1.7-7.4c-2.5-1.6-5.8-0.8-7.4,1.7c-13.5,21.5-25.4,47.9-35.3,78.6c-0.4,1.4-0.9,2.7-1.2,3.9    c-11.1,33.6-26.9,45.2-27,45.3c-1.9,1.3-2.8,3.8-2.1,6C36.5,458.9,38.6,460.4,40.9,460.4z M299.7,393.3    c-14.5-42.3-40-96.1-80.6-120.9h28.7c7.2,0,14.5,1.6,21,4.7c42.6,20.1,69.3,76.2,84.3,119.8c0.5,1.5,11.5,31.6,34.8,52.8h-46    C313.7,431.6,299.8,393.7,299.7,393.3z M150,383.5c0-17.5,14.2-31.7,31.7-31.7c17.5,0,31.7,14.2,31.7,31.7v66.2H150V383.5z"/><path class="st33" d="M439.6,460.4c3,0,5.4-2.4,5.4-5.4s-2.4-5.4-5.4-5.4h-3.9c-3,0-5.4,2.4-5.4,5.4s2.4,5.4,5.4,5.4H439.6z"/><path class="st33" d="M302.4,229.3c-3,0-5.4,2.4-5.4,5.4c0,3,2.4,5.4,5.4,5.4h1c3,0,5.4-2.4,5.4-5.4c0-3-2.4-5.4-5.4-5.4H302.4z"/></g></g></svg>