<?xml version="1.0" ?><!DOCTYPE svg  PUBLIC '-//W3C//DTD SVG 1.1//EN'  'http://www.w3.org/Graphics/SVG/1.1/DTD/svg11.dtd'><svg height="512px" id="icon" style="enable-background:new 0 0 512 512;" version="1.1" viewBox="0 0 512 512" width="512px" xml:space="preserve" xmlns="http://www.w3.org/2000/svg" xmlns:xlink="http://www.w3.org/1999/xlink"><style type="text/css">
<![CDATA[
	.st0{fill:#E0B792;}
	.st1{fill:#E8587E;}
	.st2{fill:#E8E8E8;}
	.st3{fill:#E9FFFF;}
	.st4{fill:#B5B5B5;}
	.st5{fill:#EFCDB7;}
	.st6{fill:#8D8D8D;}
	.st7{fill:#F3F3F3;}
	.st8{fill:#F55F6A;}
	.st9{fill:#C0C0C0;}
	.st10{fill:#FAB252;}
	.st11{fill:#C7824F;}
	.st12{fill:#C7E5BF;}
	.st13{fill:#FCB67C;}
	.st14{fill:#FCE3CF;}
	.st15{fill:#FF8D9C;}
	.st16{fill:#FF9182;}
	.st17{fill:#FF9CB2;}
	.st18{fill:#FFA991;}
	.st19{fill:#FFC5BC;}
	.st20{fill:#FFC8D5;}
	.st21{fill:#FFCAD7;}
	.st22{fill:#FFD9E5;}
	.st23{fill:#FFE3C0;}
	.st24{fill:#FFE990;}
	.st25{fill:#FFF4E4;}
	.st26{fill:#FFF8CD;}
	.st27{fill:#FFFFF6;}
	.st28{fill:#FFFFF8;}
	.st29{fill:#FFFFFF;}
	.st30{fill:#62ACCC;}
	.st31{fill:#666666;}
	.st32{fill:#688F5E;}
	.st33{fill:#333333;}
	.st34{fill:#D3A98C;}
	.st35{fill:#D9D9D9;}
	.st36{fill:#A07657;}
	.st37{fill:#A0C797;}
	.st38{fill:#737373;}
	.st39{fill:#76B9DE;}
	.st40{fill:#A6A6A6;}
	.st41{fill:#A7DBFC;}
]]>
</style><g><g><g><g><rect class="st0" height="190.7" width="36.8" x="328.3" y="277.8"/><path class="st36" d="M328.3,317.2h3.9c10.8,0,19.6,8.8,19.6,19.6v131.7h13.3V277.8h-36.8V317.2z"/><path class="st14" d="M329.8,342h-1.5v85.8h1.5c7.2,0,13.1-5.9,13.1-13.1v-59.6C342.9,347.9,337,342,329.8,342z"/></g><g><path class="st32" d="M202,194.5c2,10.5,5.9,20.5,11.5,29.6c14.7,23.8,51.1,68.7,117,68.7c0,0,37.8-0.8,65-28      c0,0,68.1-1.8,75.2-66.7c0,0,6.3-63.3-34.9-85.5c0,0-5.8-65-79.8-69.1c0,0-50.2-3.3-71.6,42.8c0,0-1.4,0.1-3.8,0.3      c-51.9,5.6-88.1,54.3-79,105.7C201.7,193,201.9,193.7,202,194.5z"/><path class="st37" d="M381,47.7c-7.3-2.2-15.6-3.7-25-4.2c0,0-50.2-3.3-71.6,42.8c0,0-1.6,0.1-4.2,0.4      c-52,5.8-87.8,54.8-78.5,106.2c0.1,0.6,0.2,1.1,0.3,1.7c2.1,10.6,6.1,20.8,11.8,30c6.5,10.5,17.2,25,32.7,37.9      c4.3,0.4,8.7,0.6,13.1,0.6c1.1,0,2.1,0,3.2,0l0,0c3.1-22,21.9-38.3,44.1-38.3h0c43.7,0,81.9-30.2,91.3-72.9      c2.2-9.9,3.3-20.1,3.3-30.6C401.4,94.2,394,69.1,381,47.7z"/><path class="st12" d="M200.2,177.6c10.5,4.3,21.9,6.7,33.9,6.7c49.4,0,89.5-40.1,89.5-89.5c0-14.7-3.6-28.5-9.8-40.8      c-11.1,6.3-22,16.3-29.4,32.3c0,0-1.4,0.1-3.8,0.3C233.7,91.7,199.6,131.9,200.2,177.6z"/></g></g><g><rect class="st7" height="226.9" width="20.7" x="74.5" y="241.6"/><rect class="st7" height="226.9" width="20.7" x="234.1" y="241.6"/><rect class="st40" height="182.5" width="20.7" x="74.5" y="241.6"/><rect class="st40" height="182.5" width="20.7" x="234.1" y="241.6"/><path class="st13" d="M288.4,277.8H40.9v-18c0-10,8.1-18.1,18.1-18.1h211.3c10,0,18.1,8.1,18.1,18.1V277.8z"/><path class="st13" d="M288.4,340.7H40.9V319c0-8,6.5-14.5,14.5-14.5h218.6c8,0,14.5,6.5,14.5,14.5V340.7z"/><path class="st11" d="M275,395H54.3c-7.4,0-13.4-6-13.4-13.4v-15.9h247.5v15.9C288.4,389,282.4,395,275,395z"/><path class="st11" d="M270.3,241.6h-40.5v3c0,10.2-8.2,18.4-18.4,18.4h-67.8c-8.9,0-16.4,6.4-18,14.8h162.9v-18     C288.4,249.7,280.3,241.6,270.3,241.6z"/><path class="st11" d="M273.9,304.5h-44.2v4c0,10.2-8.2,18.4-18.4,18.4h-67.8c-8.6,0-15.7,5.8-17.8,13.8h162.6V319     C288.4,311,281.9,304.5,273.9,304.5z"/><path class="st25" d="M72,272c0-9,7.3-16.2,16.2-16.2h30.7c8.2,0,15-6.1,16.1-14.1H59c-10,0-18.1,8.1-18.1,18.1v18H72V272z"/><path class="st25" d="M72,335.1c0-9,7.3-16.2,16.2-16.2h30.7c8.3,0,15.2-6.3,16.1-14.4H55.4c-8,0-14.5,6.5-14.5,14.5v21.7H72     V335.1z"/><path class="st13" d="M40.9,365.7v14.6h134.8c8.3,0,15.2-6.5,15.8-14.6H40.9z"/></g></g><g><path class="st33" d="M215.3,126.1c-2.6-1.5-5.9-0.6-7.4,1.9c-11.5,19.6-15.6,42.8-11.6,65.2c0.1,0.8,0.3,1.5,0.4,2.3    c0.9,4.5,2.1,9,3.6,13.4c0.8,2.2,2.9,3.6,5.1,3.6c0.6,0,1.2-0.1,1.8-0.3c2.8-1,4.3-4.1,3.3-6.9c-1.4-3.8-2.4-7.8-3.2-11.8    c-0.1-0.7-0.3-1.4-0.4-2.1c-3.5-19.9,0.2-40.4,10.3-57.8C218.7,130.9,217.9,127.6,215.3,126.1z"/><path class="st33" d="M226.1,105.5c-1.1,1-2.1,2-3.1,3c-2.1,2.1-2.1,5.5,0,7.6c1.1,1.1,2.4,1.6,3.8,1.6c1.4,0,2.8-0.5,3.8-1.6    c0.9-0.9,1.9-1.8,2.8-2.7c2.2-2,2.4-5.4,0.3-7.6C231.8,103.7,228.3,103.5,226.1,105.5z"/><path class="st33" d="M247.2,102.5c0.9,0,1.8-0.2,2.6-0.7c9.7-5.3,20.3-8.6,31.4-9.8c2.2-0.2,3.4-0.3,3.5-0.3    c2-0.1,3.8-1.3,4.7-3.1c19.5-42.1,64.4-39.8,66.4-39.7c39.2,2.2,57.9,22.5,66.6,39.1c1.4,2.6,4.6,3.6,7.3,2.3    c2.6-1.4,3.6-4.6,2.3-7.3c-10-19.1-31.3-42.4-75.5-44.9c-0.5,0-52-2.8-75.4,43c-0.3,0-0.6,0.1-0.9,0.1    c-12.5,1.4-24.5,5.1-35.4,11.1c-2.6,1.4-3.6,4.7-2.1,7.3C243.4,101.4,245.3,102.5,247.2,102.5z"/><path class="st33" d="M415.2,463.1c-3,0-5.4,2.4-5.4,5.4c0,3,2.4,5.4,5.4,5.4h4c3,0,5.4-2.4,5.4-5.4c0-3-2.4-5.4-5.4-5.4H415.2z"/><path class="st33" d="M88.6,236.2c-3,0-5.4,2.4-5.4,5.4s2.4,5.4,5.4,5.4h8.9c3,0,5.4-2.4,5.4-5.4s-2.4-5.4-5.4-5.4H88.6z"/><path class="st33" d="M157.1,468.5c0-3-2.4-5.4-5.4-5.4h-5.5c-3,0-5.4,2.4-5.4,5.4c0,3,2.4,5.4,5.4,5.4h5.5    C154.7,473.9,157.1,471.5,157.1,468.5z"/><path class="st33" d="M74.5,473.9h20.7h26.7c3,0,5.4-2.4,5.4-5.4c0-3-2.4-5.4-5.4-5.4h-21.3v-46.6c0-3-2.4-5.4-5.4-5.4    s-5.4,2.4-5.4,5.4v46.6h-9.9v-62.7h148.9v62.7h-16.3c-3,0-5.4,2.4-5.4,5.4c0,3,2.4,5.4,5.4,5.4h21.7h20.7h13.2    c3,0,5.4-2.4,5.4-5.4c0-3-2.4-5.4-5.4-5.4h-7.9v-47.9c0-3-2.4-5.4-5.4-5.4c-3,0-5.4,2.4-5.4,5.4v47.9h-9.9v-62.7H275    c10.4,0,18.8-8.4,18.8-18.8v-15.9c0-3-2.4-5.4-5.4-5.4h-48.9v-14.3h9.9v2.2c0,3,2.4,5.4,5.4,5.4c3,0,5.4-2.4,5.4-5.4v-2.2h28.2    c3,0,5.4-2.4,5.4-5.4V319c0-11-8.9-19.9-19.9-19.9h-34.4v-15.9h9.9v3.8c0,3,2.4,5.4,5.4,5.4c3,0,5.4-2.4,5.4-5.4v-3.8h28.2    c3,0,5.4-2.4,5.4-5.4v-18c0-13-10.5-23.5-23.5-23.5H127.1c-3,0-5.4,2.4-5.4,5.4s2.4,5.4,5.4,5.4h143.2c7,0,12.7,5.7,12.7,12.7    v12.7H46.3v-12.7c0-7,5.7-12.7,12.7-12.7h1.8c3,0,5.4-2.4,5.4-5.4s-2.4-5.4-5.4-5.4H59c-13,0-23.5,10.5-23.5,23.5v18    c0,3,2.4,5.4,5.4,5.4h28.2v15.9H55.4c-11,0-19.9,8.9-19.9,19.9v21.7c0,3,2.4,5.4,5.4,5.4h28.2v14.3H40.9c-3,0-5.4,2.4-5.4,5.4    v15.9c0,10.4,8.4,18.8,18.8,18.8c3,0,5.4-2.4,5.4-5.4c0-3-2.4-5.4-5.4-5.4c-4.4,0-8-3.6-8-8v-10.5H283v10.5c0,4.4-3.6,8-8,8H74.5    c-3,0-5.4,2.4-5.4,5.4c0,0.5,0.1,0.9,0.2,1.3c-0.1,0.4-0.2,0.9-0.2,1.3v65.4h-6c-3,0-5.4,2.4-5.4,5.4c0,3,2.4,5.4,5.4,5.4H74.5z     M79.8,283.2h9.9v3.8c0,3,2.4,5.4,5.4,5.4s5.4-2.4,5.4-5.4v-3.8h128.2v15.9H79.8V283.2z M46.3,319c0-5,4.1-9.1,9.1-9.1h218.6    c5,0,9.1,4.1,9.1,9.1v16.3H46.3V319z M79.8,346.1h9.9v2.2c0,3,2.4,5.4,5.4,5.4s5.4-2.4,5.4-5.4v-2.2h128.2v14.3H79.8V346.1z"/><path class="st33" d="M476.1,198.6c0.3-2.7,6.3-67.6-37.7-90.8c-19.7-10.4-35.2,3.8-35.8,4.5c-2.2,2-2.3,5.4-0.3,7.6    c2,2.2,5.4,2.3,7.6,0.3c0.1-0.1,10.5-9.6,23.4-2.8c37.6,19.8,32.1,79.6,32,80.1c-6.5,59.4-67.4,61.9-70,61.9    c-1.4,0-2.7,0.6-3.7,1.6c-25.2,25.2-61,26.4-61.2,26.4c-6.3,0-12.6-0.4-18.7-1.3c-2.9-0.4-5.7,1.6-6.1,4.6    c-0.4,2.9,1.6,5.7,4.6,6.1c6.6,0.9,13.3,1.4,20.3,1.4c0,0,0,0,0,0c0.9,0,13.3-0.4,29.1-5.6v170.6h-26v-146c0-3-2.4-5.4-5.4-5.4    c-3,0-5.4,2.4-5.4,5.4v146h-12c-3,0-5.4,2.4-5.4,5.4c0,3,2.4,5.4,5.4,5.4h17.4h36.8h24.8c3,0,5.4-2.4,5.4-5.4c0-3-2.4-5.4-5.4-5.4    h-19.4v-72.7c0-9.8,4.7-19.1,12.5-25l11.7-8.8c8-6,12.7-15.5,12.7-25.5V314c0-3-2.4-5.4-5.4-5.4c-3,0-5.4,2.4-5.4,5.4v17.1    c0,6.6-3.2,12.9-8.4,16.9l-11.7,8.8c-2.2,1.7-4.2,3.5-6,5.6v-74c9.1-4.1,18.7-10,27.4-18.3c5.4-0.4,19.8-2.2,34.9-9.4    C450.4,252.3,472.1,234.7,476.1,198.6z"/></g></g></svg>